# xmcd CD database file
#
# Track frame offsets:
#	150
#	35857
#	71304
#	107328
#	143332
#	178418
#	212440
#	244091
#	279909
#	314240
#
# Disc length: 4519 seconds
#
# Revision: 1
# Processed by: cddbd v1.5.2PL0 Copyright (c) Steve Scherf et al.
# Submitted via: CDex 1.70beta2
#
DISCID=8e11a50a
DTITLE=Various Artist - Yoga and Meditation - CD1
DYEAR=2012
DGENRE=New Age
TTITLE0=Drifting Spirits - Prem Gulshan
TTITLE1=Mountain Mantra - Lotus Blossom
TTITLE2=Orient Expressions - Forgotten Place
TTITLE3=Salaam Soundclash - Changing Tides
TTITLE4=Saffron Sounds - Warm Embrace
TTITLE5=Memories Of Goa - Dawn Meditation
TTITLE6=Orient Expressions - Floating Spirits
TTITLE7=Hanndi - Drifting
TTITLE8=Beyond Bombay - Contact
TTITLE9=Tabla Temple
EXTD=YEAR: 2012
EXTT0=
EXTT1=
EXTT2=
EXTT3=
EXTT4=
EXTT5=
EXTT6=
EXTT7=
EXTT8=
EXTT9=
PLAYORDER=
